<mxfile host="app.diagrams.net" modified="2022-07-04T18:50:14.150Z" agent="5.0 (Windows NT 10.0; Win64; x64) AppleWebKit/537.36 (KHTML, like Gecko) Chrome/103.0.0.0 Safari/537.36" etag="-7aoLDusjQxOot4iEBdi" version="20.0.4" type="github">
  <diagram id="QmS6fSzwxyoIpcW4O86i" name="Page-1">
    <mxGraphModel dx="1422" dy="762" grid="1" gridSize="10" guides="1" tooltips="1" connect="1" arrows="1" fold="1" page="1" pageScale="1" pageWidth="827" pageHeight="1169" math="0" shadow="0">
      <root>
        <mxCell id="0" />
        <mxCell id="1" parent="0" />
        <mxCell id="N2dMSwQeCDhrm1_doQ2U-9" value="" style="edgeStyle=orthogonalEdgeStyle;rounded=0;orthogonalLoop=1;jettySize=auto;html=1;" edge="1" parent="1" source="N2dMSwQeCDhrm1_doQ2U-1" target="N2dMSwQeCDhrm1_doQ2U-2">
          <mxGeometry relative="1" as="geometry" />
        </mxCell>
        <mxCell id="N2dMSwQeCDhrm1_doQ2U-1" value="index.html" style="rounded=0;whiteSpace=wrap;html=1;" vertex="1" parent="1">
          <mxGeometry x="10" y="40" width="120" height="60" as="geometry" />
        </mxCell>
        <mxCell id="N2dMSwQeCDhrm1_doQ2U-10" value="" style="edgeStyle=orthogonalEdgeStyle;rounded=0;orthogonalLoop=1;jettySize=auto;html=1;" edge="1" parent="1" source="N2dMSwQeCDhrm1_doQ2U-2" target="N2dMSwQeCDhrm1_doQ2U-4">
          <mxGeometry relative="1" as="geometry" />
        </mxCell>
        <mxCell id="N2dMSwQeCDhrm1_doQ2U-2" value="main.ts" style="whiteSpace=wrap;html=1;rounded=0;" vertex="1" parent="1">
          <mxGeometry x="210" y="40" width="120" height="60" as="geometry" />
        </mxCell>
        <mxCell id="N2dMSwQeCDhrm1_doQ2U-13" value="" style="edgeStyle=orthogonalEdgeStyle;rounded=0;orthogonalLoop=1;jettySize=auto;html=1;" edge="1" parent="1" source="N2dMSwQeCDhrm1_doQ2U-4" target="N2dMSwQeCDhrm1_doQ2U-6">
          <mxGeometry relative="1" as="geometry" />
        </mxCell>
        <mxCell id="N2dMSwQeCDhrm1_doQ2U-4" value="&lt;div&gt;platformBrowserDynamic(). bootstrapModule( AppModule)&lt;span style=&quot;background-color: initial;&quot;&gt;&amp;nbsp;&lt;/span&gt;&lt;/div&gt;" style="whiteSpace=wrap;html=1;rounded=0;" vertex="1" parent="1">
          <mxGeometry x="400" y="40" width="200" height="60" as="geometry" />
        </mxCell>
        <mxCell id="N2dMSwQeCDhrm1_doQ2U-17" value="Boostrap" style="edgeStyle=orthogonalEdgeStyle;rounded=0;orthogonalLoop=1;jettySize=auto;html=1;" edge="1" parent="1" source="N2dMSwQeCDhrm1_doQ2U-6" target="N2dMSwQeCDhrm1_doQ2U-16">
          <mxGeometry relative="1" as="geometry" />
        </mxCell>
        <mxCell id="N2dMSwQeCDhrm1_doQ2U-6" value="app.module.ts" style="whiteSpace=wrap;html=1;rounded=0;" vertex="1" parent="1">
          <mxGeometry x="440" y="150" width="120" height="60" as="geometry" />
        </mxCell>
        <mxCell id="N2dMSwQeCDhrm1_doQ2U-20" value="" style="edgeStyle=orthogonalEdgeStyle;rounded=0;orthogonalLoop=1;jettySize=auto;html=1;" edge="1" parent="1" source="N2dMSwQeCDhrm1_doQ2U-14" target="N2dMSwQeCDhrm1_doQ2U-19">
          <mxGeometry relative="1" as="geometry" />
        </mxCell>
        <mxCell id="N2dMSwQeCDhrm1_doQ2U-14" value="app.component.ts" style="whiteSpace=wrap;html=1;rounded=0;" vertex="1" parent="1">
          <mxGeometry x="280" y="320" width="120" height="60" as="geometry" />
        </mxCell>
        <mxCell id="N2dMSwQeCDhrm1_doQ2U-18" value="" style="edgeStyle=orthogonalEdgeStyle;rounded=0;orthogonalLoop=1;jettySize=auto;html=1;" edge="1" parent="1" source="N2dMSwQeCDhrm1_doQ2U-16" target="N2dMSwQeCDhrm1_doQ2U-14">
          <mxGeometry relative="1" as="geometry" />
        </mxCell>
        <mxCell id="N2dMSwQeCDhrm1_doQ2U-16" value="AppComponent" style="whiteSpace=wrap;html=1;rounded=0;" vertex="1" parent="1">
          <mxGeometry x="440" y="320" width="120" height="60" as="geometry" />
        </mxCell>
        <mxCell id="N2dMSwQeCDhrm1_doQ2U-19" value="selector: &#39;my-app&#39;" style="whiteSpace=wrap;html=1;rounded=0;" vertex="1" parent="1">
          <mxGeometry x="120" y="320" width="120" height="60" as="geometry" />
        </mxCell>
      </root>
    </mxGraphModel>
  </diagram>
</mxfile>
